<?xml version="1.0" standalone="no"?>
<!DOCTYPE svg PUBLIC "-//W3C//DTD SVG 20010904//EN"
 "http://www.w3.org/TR/2001/REC-SVG-20010904/DTD/svg10.dtd">
<svg version="1.0" xmlns="http://www.w3.org/2000/svg"
 width="800.000000pt" height="800.000000pt" viewBox="0 0 800.000000 800.000000"
 preserveAspectRatio="xMidYMid meet">
<metadata>
Created by potrace 1.11, written by Peter Selinger 2001-2013
</metadata>
<g transform="translate(0.000000,800.000000) scale(0.100000,-0.100000)"
fill="#000000" stroke="none">
<path d="M2490 7933 c0 -10 -117 -848 -259 -1863 -143 -1015 -258 -1846 -257
-1847 1 -1 167 -22 369 -46 l367 -43 5 31 c7 40 235 2157 235 2179 0 9 3 15 8
12 4 -2 181 -504 392 -1115 l385 -1111 254 3 254 2 272 840 c433 1337 448
1381 453 1367 2 -8 70 -507 151 -1111 l146 -1097 355 42 c195 23 362 43 370
45 13 3 -22 274 -245 1864 l-260 1860 -302 3 -301 2 -30 -82 c-16 -46 -206
-595 -422 -1220 -216 -626 -396 -1138 -400 -1138 -4 0 -215 549 -470 1220
l-463 1220 -304 0 c-282 0 -303 -1 -303 -17z"/>
<path d="M3745 3858 c-3 -7 -117 -362 -255 -788 -469 -1447 -462 -1428 -471
-1395 -4 17 -71 515 -150 1108 l-143 1077 -26 0 c-28 0 -714 -80 -715 -83 -1
-1 116 -839 260 -1862 l260 -1860 302 -3 301 -2 30 82 c16 46 206 595 422
1221 216 625 396 1137 400 1137 4 0 215 -549 470 -1220 l463 -1220 304 0 c282
0 303 1 303 18 0 9 117 847 259 1862 143 1015 258 1846 257 1847 -1 1 -167 22
-369 46 l-367 43 -5 -31 c-7 -40 -235 -2157 -235 -2179 0 -9 -3 -15 -8 -12 -4
2 -181 504 -392 1115 l-385 1111 -253 0 c-193 0 -254 -3 -257 -12z"/>
</g>
</svg>
